<?xml version="1.0" encoding="utf-8"?>
<!-- Generator: Adobe Illustrator 21.0.0, SVG Export Plug-In . SVG Version: 6.00 Build 0)  -->
<svg version="1.1" id="Layer_1" xmlns="http://www.w3.org/2000/svg" xmlns:xlink="http://www.w3.org/1999/xlink" x="0px" y="0px"
	 viewBox="0 0 1000 1000" style="enable-background:new 0 0 1000 1000;" xml:space="preserve">
<style type="text/css">
	.st0{fill:#FFFFFF;}
	.st1{fill:none;stroke:#FFFFFF;stroke-width:9;stroke-miterlimit:10;}
	.st2{fill:#8F8F8F;}
</style>
<g>
	<g>
		<path class="st0" d="M23.8,589.7V511H12v89.2h55.7v-10.5H23.8z"/>
		<path class="st0" d="M163,589.7v-30.4h49.3v-10.5H163v-27.3h52.7V511h-64.5v89.2h66.5v-10.5H163z"/>
		<path class="st0" d="M340.4,511h-12.7l-34.2,89.2h12.5l9.8-27H353l10.4,27h13.4L340.4,511z M319.2,563.6l9.8-26.2
			c2.1-5.6,3.7-11.3,4.8-17c1.4,4.8,3.5,11,6.3,18.5l9.3,24.7H319.2z"/>
		<path class="st0" d="M525.7,533.9c-2.3-6.2-5.8-11.3-10.5-15.2c-3.6-3.1-8-5.2-13.1-6.4c-3.7-0.8-8.9-1.3-15.9-1.3h-30.7v89.2
			h32.2c5.4,0,10.2-0.5,14.3-1.5c4.2-1,7.7-2.5,10.6-4.5c2.9-2,5.6-4.7,8.1-8.1c2.5-3.4,4.5-7.8,6.1-13c1.6-5.2,2.4-11.2,2.4-18
			C529.2,547.2,528,540.1,525.7,533.9z M514.7,572.1c-1.6,4.7-3.8,8.5-6.5,11.3c-2,2-4.7,3.5-8,4.6c-3.3,1.1-7.9,1.6-13.8,1.6h-19
			v-68.1H486c7,0,12.1,0.6,15.3,1.8c4.4,1.7,8.1,5.1,11.2,10.1c3.1,5,4.6,12.2,4.6,21.5C517,561.7,516.3,567.4,514.7,572.1z"/>
		<path class="st0" d="M626.7,589.7v-30.4H676v-10.5h-49.3v-27.3h52.7V511h-64.5v89.2h66.6v-10.5H626.7z"/>
		<path class="st0" d="M830.1,575.9c-3.1-4.7-6.3-8.7-9.8-11.9c-1.6-1.5-4-2.9-7.1-4.4c8.6-1.2,14.9-3.9,19-8.3
			c4.1-4.3,6.1-9.7,6.1-16c0-4.9-1.2-9.4-3.7-13.5c-2.5-4.1-5.8-6.9-9.9-8.5c-4.1-1.6-10.2-2.4-18.1-2.4h-39.5v89.2h11.8v-39.6h13.7
			c3,0,5.2,0.2,6.6,0.4c1.8,0.4,3.6,1.2,5.4,2.4c1.8,1.1,3.8,3.1,6,6c2.2,2.8,5.1,6.9,8.5,12.3l11.8,18.5h14.9L830.1,575.9z
			 M804.2,550.4h-25.4v-29.5h28.2c6.6,0,11.4,1.4,14.5,4.1c3.1,2.7,4.6,6.2,4.6,10.4c0,2.9-0.8,5.5-2.4,8c-1.6,2.5-3.9,4.2-6.9,5.4
			C813.8,549.8,809.6,550.4,804.2,550.4z"/>
		<path class="st0" d="M989.3,562.4c-2.5-3.7-6.3-6.7-11.5-9.1c-3.6-1.6-10.1-3.5-19.7-5.7c-9.6-2.2-15.5-4.3-17.8-6.4
			c-2.3-2.1-3.5-4.7-3.5-7.9c0-3.7,1.6-6.8,4.9-9.5c3.3-2.6,8.5-3.9,15.6-3.9c6.9,0,12,1.4,15.5,4.3c3.5,2.9,5.6,7.1,6.2,12.8
			l11.3-0.8c-0.2-5.2-1.7-9.9-4.4-14c-2.7-4.1-6.6-7.3-11.6-9.4c-5.1-2.1-10.9-3.2-17.5-3.2c-6,0-11.4,1-16.4,3
			c-4.9,2-8.6,5-11.2,8.9c-2.6,3.9-3.8,8.1-3.8,12.6c0,4.1,1,7.8,3.1,11.1c2.1,3.3,5.3,6.1,9.5,8.3c3.3,1.7,9,3.6,17.2,5.6
			c8.2,2,13.5,3.4,15.9,4.3c3.7,1.4,6.4,3.2,8,5.3c1.6,2.1,2.4,4.5,2.4,7.3c0,2.8-0.8,5.3-2.5,7.6c-1.7,2.3-4.2,4.2-7.7,5.5
			c-3.4,1.3-7.4,2-11.9,2c-5.1,0-9.6-0.9-13.7-2.6c-4.1-1.8-7-4.1-9-6.9c-1.9-2.9-3.2-6.5-3.7-11l-11.1,1c0.2,6,1.8,11.3,4.9,16
			c3.1,4.7,7.4,8.3,12.8,10.6c5.5,2.4,12.2,3.5,20.3,3.5c6.4,0,12.1-1.2,17.2-3.5c5.1-2.3,9-5.6,11.7-9.8c2.7-4.2,4.1-8.7,4.1-13.4
			C993,570.2,991.8,566,989.3,562.4z"/>
	</g>
</g>
<line class="st1" x1="12.6" y1="477.2" x2="991.2" y2="477.2"/>
<path class="st2" d="M551.5,425.1c-0.1-0.9-0.2-1.7-0.4-2.5c-0.5-2-1.5-3.9-2.9-5.7c1.2-0.8,2.1-1.8,2.5-2.8c0.4-1,0.5-1.9,0.2-2.8
	c-0.2-0.8-0.8-1.5-1.7-2.1c-0.9-0.6-2.1-0.9-3.5-0.9c0.6,0.8,0.8,1.9,0.7,3.2c-0.2,1.2-0.6,2.1-1.5,2.8c-2.7-1.4-5.4-2.3-8.1-2.8
	c-2.8-0.5-5.7-0.3-8.8,0.5c-2.5,0.7-4.4,1.8-5.5,3.3c-1.1,1.5-1.6,3.2-1.4,4.9c0.5,3.8,2.7,5.8,6.5,5.8c1.6,0,2.9-0.5,4.1-1.2
	c1.1-0.8,1.8-1.8,1.9-2.9c0.5-2.3-0.4-4.5-2.5-6.5c3.4-0.8,6.4-0.7,9,0.5c2.6,1.2,4.6,2.9,5.8,5.3c1.3,2.3,1.8,4.9,1.7,7.8
	c-0.2,2.9-1.3,5.5-3.4,8.1c-0.5-1-1.2-1.9-2.2-2.8c-0.9-0.9-1.8-1.5-2.8-1.9c-0.6-0.2-1.2-0.4-1.8-0.4c-0.6,0-1.1,0.2-1.5,0.4
	c-0.4,0.2-0.7,0.6-0.8,1.1c-0.2,0.5-0.1,1,0.2,1.7c0.7,1.3,0.8,2.6,0.5,4c-0.4,1.4-1.1,2.6-2.1,3.6c-1.1,1.1-2.5,1.8-4.1,2.5
	c-1.6,0.6-3.3,0.9-5.1,0.9c-2.4,0-4.7-0.6-6.7-1.8c-2-1.1-3.7-2.7-5-4.4c-1.3-1.8-2.2-3.6-2.7-5.6c-0.5-2-0.4-3.8,0.2-5.6
	c-1-0.2-1.8-0.2-2.5,0.2c-0.8,0.5-1.3,1.1-1.7,1.9c-0.5,0.8-0.7,1.8-0.8,2.8c-0.1,1.1,0,2.1,0.2,3.1c-1.8-0.9-3.2-2.2-4.2-4
	c-0.9-1.8-1.2-3.9-0.8-6.5c0.3-1.6,0.8-3.1,1.4-4.4c0.7-1.3,1.5-2.5,2.5-3.8c1-1.1,2.1-2.4,3.3-3.6c1.1-1.1,2.4-2.5,3.6-3.8
	c0.6-0.6,0.6-1.1,0.2-1.5c-0.5-0.4-1.3-0.2-2.5,0.4c-1.2,0.7-2.4,1.4-3.6,2c-1.3,0.7-2.5,1.3-3.9,2c0-2.1,0.8-4,2.2-5.8
	c1.5-1.8,3.2-3.3,5.1-4.5c2-1.1,4-1.8,6.1-2.1c2.1-0.3,3.8,0,5,0.9c0.8,0.6,1.1,1.2,0.9,1.9c-0.1,0.7-0.6,1-1.5,0.8
	c0.4,2.6,2.8,4,7.1,4c1.1,0,2.3-0.3,3.4-1c1.1-0.6,1.9-1.3,2.6-2.2c0.7-0.8,1.1-1.8,1.2-2.9c0.2-1,0-2-0.6-2.8
	c1.3-0.5,2.2-1.2,2.8-2.2c0.5-1,0.6-2,0.4-3.1c-0.5-1.9-1.3-3.4-2.6-4.2c-1.4-0.9-3-1.8-4.9-2.5c0.4-3-0.8-4.9-3.4-5.8
	c-2.6-0.9-6-1-10-0.4c-0.2-0.6-0.1-1.1,0.4-1.6c0.5-0.4,1-0.8,1.6-1.1c0.6-0.2,1.2-0.6,1.7-1c0.5-0.3,0.7-0.8,0.5-1.4
	c-0.5-1.5-1-2.9-1.6-4.2c-0.7-1.3-1.5-2.5-2.5-3.6c-1-1.1-2.2-2-3.6-2.7c-1.4-0.7-3-1.1-4.8-1.3c-1.9-0.2-3.8,0-5.8,0.5
	c-2,0.5-3.2,1.5-3.8,2.9c-0.2,0.5-0.1,1,0.2,1.5c0.2,0.5,0.6,0.8,1.2,1.1c0.5,0.2,1.1,0.4,1.8,0.5c0.7,0.1,1.3,0,2-0.2
	c0.5-0.2,1.1-0.5,1.5-0.9c0.5-0.4,0.8-0.8,1.2-1.1c0.5-0.3,0.8-0.6,1.3-0.8c0.5-0.2,1.1-0.2,1.7-0.1c0.8,0.2,1.5,0.7,2.1,1.6
	c0.5,0.9,1,1.9,1.2,3c0.2,1.1,0.3,2.1,0.2,3c-0.1,0.8-0.4,1.4-0.9,1.6c-0.9,0.2-1.5-0.1-1.8-0.6c-0.3-0.6-1.1-1.4-2.2-2.3
	c-0.7-0.6-1.3-0.9-1.8-0.8c-0.6,0.1-0.8,0.8-0.4,1.9c0.2,1,0.6,2.1,1.1,3.1c0.5,1.2,0.9,2.2,1.2,3.2c0.2,1.1,0.3,2,0.1,2.9
	c-0.2,0.8-0.8,1.5-1.9,2c-0.5-1.5-0.9-2.5-1.2-3.2c-0.3-0.7-1.1-1.3-2.2-1.9c-0.5-0.2-1.1-0.4-1.6-0.4c-0.6,0-1.1,0.2-1.5,0.3
	c-0.4,0.2-0.7,0.5-0.8,1c-0.2,0.5,0.1,1.1,0.5,2c0.7,0.8,1,2,0.8,3.4c-0.1,1.4-0.6,2.9-1.6,4.5c-1.7,2.9-3.1,6.3-4.3,10.2
	c-1.1,3.9-1.8,7.9-1.8,12.1c0,4.3,0.9,8.4,2.8,12.2c1.9,3.9,4.7,7.4,8.4,10.5c-1.5-0.3-2.8-0.3-4.2-0.1c-1.3,0.3-2.5,0.8-3.4,1.5
	c-1,0.7-1.7,1.6-2.1,2.7c-0.5,1.1-0.5,2.2-0.1,3.6c1.3-1,2.5-1.8,3.8-2.1c1.3-0.4,2.6-0.6,3.9-0.6c1.9,0,3.8,0.2,5.8,0.8
	c2,0.6,4,1.2,6,1.9c2.1,0.7,4.1,1.3,6.1,1.9c2,0.5,4.1,0.8,6.1,0.8c2.5,0,5.1-0.2,7.8-0.5c2.6-0.4,5.1-1.1,7.4-2.1
	c2.2-1,4.3-2.4,6.2-4.2c1.8-1.8,3.3-4,4.4-6.6c1.1-2.7,1.5-5.7,1.4-9C551.6,425.5,551.6,425.3,551.5,425.1z M527.5,416.7
	c-0.5,0-0.8-0.2-0.8-0.6c0-0.5,0.2-0.8,0.8-0.8c0.5,0,0.8,0.2,0.8,0.8C528.3,416.5,527.9,416.7,527.5,416.7z M515.3,383.9
	c0.5,0,0.8,0.2,0.8,0.7c0,0.5-0.2,0.6-0.8,0.6c-0.5,0-0.8-0.2-0.8-0.6C514.5,384.1,514.8,383.9,515.3,383.9z M495.4,415.1
	c-0.7-2-0.9-4-0.8-6.1c0.2-2,0.7-3.9,1.5-5.8c0.8-1.8,1.9-3.5,3.5-5.1c1.5-1.5,3.2-2.8,5.2-3.7c1.8-0.8,3.9-1.5,6.3-2
	c2.4-0.5,4.8-0.8,7.4-0.9c2.5-0.2,4.8,0,7.1,0.3c2.2,0.4,4.1,1.1,5.5,1.9c1.2,0.8,1.7,1.8,1.4,2.8c-0.3,1-1.2,1.4-2.4,1.1
	c-3.4-1-6.8-1.3-10.5-1c-3.5,0.4-6.9,1.4-10.1,3c-3.2,1.5-6,3.7-8.5,6.3C498.5,408.6,496.6,411.7,495.4,415.1z M484,439.3
	c-0.9-0.7-2.1-1.2-3.5-1.5c-1.3-0.2-2.7-0.2-4.1,0.1c3.8-3.1,6.5-6.6,8.4-10.5c1.9-3.8,2.8-7.9,2.8-12.2c0-4.1-0.6-8.1-1.7-12.1
	c-1.1-3.9-2.5-7.3-4.3-10.2c-1.9-3.2-2.2-5.9-0.8-7.9c0.5-0.8,0.7-1.5,0.6-2c-0.1-0.5-0.4-0.8-0.8-1c-0.5-0.2-0.9-0.3-1.5-0.3
	c-0.6,0-1.1,0.2-1.6,0.4c-1.1,0.5-1.9,1.1-2.2,1.9c-0.3,0.7-0.7,1.8-1.1,3.2c-1.2-0.5-1.8-1.1-2-2c-0.2-0.8-0.1-1.8,0.2-2.9
	c0.2-1,0.6-2.1,1.2-3.2c0.5-1.1,0.8-2.1,1.1-3.1c0.5-1.2,0.3-1.8-0.2-1.9c-0.6-0.2-1.2,0.2-1.9,0.8c-1.2,0.9-1.9,1.7-2.3,2.3
	c-0.3,0.5-0.9,0.8-1.8,0.6c-0.5-0.2-0.9-0.8-1.1-1.6c-0.1-0.9,0-1.9,0.3-3c0.2-1.1,0.7-2.1,1.3-3c0.5-0.9,1.2-1.5,2-1.6
	c0.6-0.2,1.1-0.2,1.6,0.1c0.5,0.2,0.9,0.5,1.3,0.8c0.5,0.3,0.8,0.7,1.3,1.1c0.4,0.4,0.8,0.7,1.5,0.9c0.6,0.2,1.2,0.3,1.9,0.2
	c0.7-0.1,1.4-0.2,1.9-0.5c0.6-0.2,1-0.6,1.3-1.1c0.3-0.5,0.3-0.9,0.1-1.5c-0.6-1.4-1.8-2.4-3.8-2.9c-2-0.5-3.9-0.7-5.8-0.5
	c-3.8,0.4-6.5,1.8-8.5,4.1c-1.8,2.2-3.1,4.8-4,7.8c-0.2,0.5,0,1.1,0.5,1.4c0.5,0.4,1.1,0.8,1.7,1c0.6,0.3,1.1,0.7,1.6,1.1
	c0.5,0.5,0.5,1,0.3,1.6c-2.1-0.3-3.9-0.5-5.6-0.4c-1.8,0-3.2,0.3-4.4,0.8c-1.2,0.5-2.1,1.2-2.8,2.1c-0.6,1-0.8,2.2-0.7,3.7
	c-2,0.8-3.6,1.6-4.9,2.5c-1.2,0.8-2.1,2.3-2.5,4.2c-0.2,1.1,0,2.1,0.5,3.1c0.5,1,1.3,1.7,2.7,2.2c-0.6,0.8-0.8,1.8-0.6,2.8
	c0.2,1.1,0.5,2,1.3,2.9c0.7,0.9,1.5,1.6,2.6,2.2c1.1,0.7,2.2,1,3.4,1c4.2,0,6.6-1.4,7.1-4c-1,0.2-1.5-0.2-1.6-0.9
	c-0.1-0.7,0.2-1.3,0.9-1.9c1.2-0.9,2.9-1.2,4.9-0.9c2.1,0.3,4.2,1,6.1,2.1c2,1.2,3.7,2.7,5.1,4.5c1.5,1.8,2.2,3.7,2.2,5.8
	c-1.3-0.7-2.5-1.3-3.8-2c-1.2-0.6-2.5-1.3-3.7-2c-1.1-0.6-1.9-0.8-2.4-0.4c-0.5,0.3-0.5,0.8,0,1.5c1.3,1.3,2.5,2.6,3.6,3.8
	c1.2,1.2,2.3,2.5,3.2,3.6c1,1.2,1.9,2.5,2.6,3.8c0.7,1.3,1.1,2.8,1.4,4.4c0.5,2.5,0.2,4.6-0.8,6.5c-1,1.8-2.4,3.1-4.2,4
	c0.2-1,0.3-2,0.2-3.1c-0.1-1.1-0.3-2.1-0.7-2.8c-0.4-0.8-0.9-1.5-1.6-1.9c-0.7-0.4-1.5-0.5-2.5-0.2c0.6,1.8,0.6,3.6,0.2,5.6
	c-0.4,2-1.3,3.8-2.6,5.6c-1.4,1.7-3,3.2-5,4.4c-2,1.2-4.2,1.8-6.8,1.8c-1.7,0-3.4-0.3-4.9-0.9c-1.6-0.7-2.9-1.5-4-2.5
	c-1.1-1-1.8-2.2-2.2-3.6c-0.4-1.4-0.2-2.7,0.4-4c0.2-0.6,0.3-1.1,0.2-1.6c-0.2-0.5-0.5-0.8-0.8-1.1c-0.5-0.3-0.9-0.5-1.5-0.5
	c-0.5,0-1.1,0.2-1.8,0.4c-1,0.4-1.9,1-2.9,1.9c-0.9,0.8-1.6,1.8-2.2,2.8c-2.1-2.5-3.3-5.2-3.5-8.1c-0.2-2.9,0.4-5.5,1.7-7.8
	c1.4-2.4,3.3-4.1,5.8-5.3c2.6-1.2,5.6-1.4,9-0.5c-2.1,2.1-2.9,4.2-2.5,6.5c0.2,1.1,0.8,2.1,2,2.9c1.2,0.8,2.5,1.2,4.1,1.2
	c3.8,0,6-1.9,6.5-5.8c0.2-1.7-0.2-3.4-1.4-4.9c-1.2-1.5-3.1-2.6-5.5-3.3c-3.2-0.8-6.1-1-8.8-0.5c-2.7,0.5-5.4,1.4-8,2.8
	c-0.9-0.6-1.5-1.5-1.6-2.8c-0.1-1.2,0.1-2.3,0.6-3.2c-1.5,0-2.6,0.3-3.5,0.9c-0.8,0.5-1.5,1.3-1.7,2.1c-0.2,0.8-0.2,1.8,0.2,2.8
	c0.4,1,1.1,1.9,2.4,2.8c-1.4,1.7-2.4,3.6-2.9,5.7c-0.2,0.8-0.4,1.7-0.4,2.5c0,0.2,0,0.4,0,0.6c-0.2,3.3,0.3,6.3,1.4,9.1
	c1.1,2.6,2.5,4.8,4.4,6.6c1.8,1.8,3.9,3.2,6.2,4.2c2.3,1.1,4.8,1.8,7.3,2.1c2.6,0.4,5.2,0.5,7.8,0.5c2,0,4.1-0.3,6.1-0.8
	c2-0.6,4.1-1.2,6.1-1.9c2.1-0.7,4.1-1.3,6.1-1.9c2-0.5,4-0.8,6-0.8c1.2,0,2.5,0.2,3.8,0.6c1.3,0.4,2.6,1.1,3.9,2.1
	c0.3-1.4,0.2-2.5-0.2-3.6C485.7,440.9,484.9,440,484,439.3z M478.3,392.7c0.5,0,0.8,0.2,0.8,0.7c0,0.5-0.2,0.6-0.8,0.6
	c-0.5,0-0.7-0.2-0.7-0.6C477.6,393,477.9,392.7,478.3,392.7z M477.9,405.9c-2.5-2.6-5.3-4.8-8.4-6.3c-3.2-1.6-6.5-2.6-10.1-3
	c-3.5-0.3-7.1,0-10.5,1c-1.4,0.3-2.1-0.1-2.4-1.1c-0.2-1.1,0.2-2,1.4-2.8c1.4-0.8,3.2-1.5,5.5-1.9c2.2-0.3,4.6-0.5,7.1-0.4
	c2.5,0.1,5,0.4,7.4,0.8c2.5,0.5,4.6,1.2,6.5,2.2c2,0.8,3.7,2.1,5.1,3.7c1.5,1.6,2.6,3.3,3.4,5.1c0.8,1.9,1.2,3.8,1.4,5.8
	c0.2,2.1,0,4.1-0.6,6.1C482.3,411.7,480.5,408.6,477.9,405.9z M478.3,419.2c0-0.5,0.3-0.7,0.8-0.7c0.5,0,0.8,0.2,0.8,0.7
	c0,0.5-0.3,0.6-0.8,0.6C478.6,419.8,478.3,419.6,478.3,419.2z"/>
<path class="st2" d="M664.3,445.3c-0.2-1.5-0.8-2.9-1.5-4c-1.1-1.7-2.6-3.1-4.5-4.2c-1.8-1.1-3.7-1.6-5.6-1.5c1.6,1.3,3,2.9,4.2,4.6
	c1.1,1.8,2.1,3.6,2.8,5.6c0.7,1.9,1.2,3.9,1.6,6c0.4,2,0.7,4,0.8,5.9c0.5-1.1,1.1-2.3,1.5-3.7c0.5-1.4,0.8-2.8,0.8-4.3
	C664.6,448.2,664.5,446.8,664.3,445.3z M652.1,434.5c0.6-0.1,1.2-0.1,2-0.1c0.8-0.1,1.5-0.2,2.3-0.2c0.8-0.1,1.5-0.4,2.1-0.9
	c-1.2-0.5-2.5-1.1-3.8-1.7c-1.2-0.7-2.5-1.2-3.8-1.7c-1.3-0.5-2.6-0.7-3.9-0.7c-1.3-0.1-2.7,0.2-4.2,0.9c-1.5,0.7-2.9,1.6-4,2.5
	c-1.1,1-2.1,2.3-2.8,3.9c1.1,0.4,2.5,0.6,3.8,0.8c1.3,0.2,2.6,0.4,3.9,0.6c1.3,0.2,2.5,0.5,3.6,1.1c1.1,0.5,2,1.3,2.6,2.4
	c0.5,0.9,0.8,1.8,0.7,2.9c0,0.9-0.2,1.9-0.4,2.9c-0.2,1.1-0.5,2.1-0.8,3.1c-0.2,1-0.5,2-0.5,2.9c1.1-0.9,2-1.9,2.9-3
	c0.9-1.1,1.6-2.2,2.1-3.5c0.5-1.1,0.8-2.4,0.9-3.7c0-1.3-0.2-2.6-0.8-3.9c-0.2-0.4-0.5-0.7-0.9-1c-0.4-0.4-0.8-0.7-1.1-1
	c-0.4-0.3-0.7-0.6-1-0.9c-0.2-0.3-0.3-0.6-0.1-0.9C651.2,434.9,651.6,434.6,652.1,434.5z M649.3,432.2c-0.4,0-0.5-0.2-0.5-0.5
	c-0.1-0.3,0.1-0.5,0.4-0.5c0.3,0,0.5,0.1,0.5,0.5C649.8,432,649.6,432.2,649.3,432.2z M644.8,405.7c-0.3-3.2-1-6.3-2.1-9.3
	c-1.2-3-2.6-5.5-4.5-7.8c-1.8-2.2-4.2-3.9-6.8-5.1c-2.7-1.1-5.7-1.5-9.1-1.1c-1.1,0.2-2.2,0.5-3.1,0.9c-0.9,0.5-1.7,1.1-2.3,1.8
	c-0.6,0.8-1.1,1.6-1.5,2.5c-0.3,0.9-0.5,1.8-0.3,2.8c0.2,2.1,1.1,3.8,2.6,4.9c1.5,1.2,3.3,1.7,5.5,1.6c0.4-0.1,0.7-0.3,0.9-0.7
	c0.2-0.3,0.2-0.7,0.2-1.1c-0.1-0.3-0.2-0.7-0.4-1c-0.2-0.3-0.5-0.5-0.8-0.7c-1.5,0.1-2.5-0.5-2.8-1.6c0-0.4,0.2-0.8,0.4-1.2
	c0.2-0.4,0.5-0.8,0.9-1.1c0.4-0.4,0.8-0.6,1.3-0.8c0.5-0.2,1-0.3,1.5-0.3c2.7-0.2,5.2,0.2,7.6,1.5c2.4,1.3,4.3,3,5.9,5.1
	c1.5,2.2,2.6,4.6,3.2,7.4c0.5,2.8,0.3,5.6-0.6,8.5c-0.8-1.1-1.8-2.2-2.9-3.2c-1.1-1-2.5-1.9-3.8-2.7c-1.4-0.8-2.8-1.5-4.2-1.9
	c-1.5-0.5-2.9-0.7-4.3-0.6c-1,0-2,0.2-3.2,0.4c-1.1,0.3-2.1,0.7-3,1.2c-0.8,0.5-1.6,1.2-2.2,2.2c-0.6,0.8-0.9,1.8-0.9,3
	c0.8-0.2,1.7-0.2,2.5,0.1c0.8,0.2,1.7,0.4,2.5,0.6c0.8,0.2,1.6,0.5,2.4,0.8c0.8,0.2,1.6,0.3,2.5,0.2c0.7,0,1.4-0.2,2.2-0.4
	c0.8-0.2,1.6-0.5,2.5-0.6c0.9-0.2,1.8-0.2,2.5-0.2c0.8,0,1.7,0.3,2.5,0.8c0.8,0.5,1.5,1.2,2.1,2.2c0.7,1.1,1.2,2.5,1.7,4.5
	c0.4,1.7,0.4,3.4,0,5.3c-0.5,1.8-1.2,3.6-2.4,5.4c-1.1,1.7-2.5,3.3-4.3,4.8c-1.7,1.5-3.8,2.7-6,3.8c-2.7,1.2-5.8,2-9.3,2.3
	c-3.5,0.3-7.1,0.3-10.9-0.1c-3.7-0.4-7.4-1.1-11.2-2.2c-3.8-1.1-7.3-2.5-10.5-4.1c-2.6-1.3-5.3-2.6-8.1-3.8
	c-2.8-1.2-5.6-2.3-8.6-3.2c-2.9-0.9-6-1.6-9.1-2.1c-2.6-0.4-5.2-0.5-8-0.4c-0.5,0-1,0-1.5,0.1c0.1,0.3,0.1,0.7,0.1,1.2
	c0.1,0.6,0.1,1,0.1,1.1c0.6,0,1.2,0,1.8,0.1c5.6,0.2,11,1.2,16,2.9c5.7,1.8,11,4.2,15.9,7c3.2,1.8,6.7,3.2,10.5,4.4
	c3.8,1.2,7.8,1.9,11.7,2.2c4,0.4,7.8,0.3,11.6-0.1c3.8-0.4,7.2-1.3,10.2-2.6c3.1-1.4,5.9-3.2,8.3-5.5c2.3-2.3,4.2-4.8,5.6-7.8
	c1.5-2.9,2.5-6.1,3-9.4C645,412.9,645.1,409.3,644.8,405.7z M624.5,405.4c-0.3,0.1-0.5-0.1-0.5-0.4c-0.1-0.3,0.1-0.5,0.4-0.5
	c0.3-0.1,0.5,0.1,0.5,0.4C625,405.1,624.8,405.4,624.5,405.4z M607.6,424c-0.7-0.9-1.5-1.7-2.6-2.3c-1-0.5-2.1-1-3.3-1.2
	c-1.2-0.2-2.4-0.3-3.5-0.2c-0.8,0.1-1.7,0.3-2.5,0.7c-0.8,0.4-1.5,0.8-2.1,1.4c-0.7,0.6-1.1,1.2-1.5,1.9c-0.4,0.8-0.5,1.5-0.5,2.3
	c0.1,1.6,0.5,2.9,1.1,4.1c0.7,1.1,1.5,1.9,2.3,2.4c0.8,0.5,1.6,0.7,2.3,0.6c0.8-0.1,1.2-0.5,1.4-1.2c0.2-0.5,0.6-0.8,1.2-1
	c0.7-0.2,1.4-0.4,2.2-0.5c0.8,0,1.5,0,2.2,0.2c0.7,0.2,1.1,0.4,1.5,0.7c-0.1-1.3-0.5-2.2-1.1-2.5c-0.7-0.4-1.5-0.6-2.4-0.6
	c-0.8-0.1-1.7-0.1-2.5,0c-0.8,0.1-1.4,0-1.8-0.2c-0.4-0.3-0.6-0.7-0.5-1.1c0-0.5,0.2-0.8,0.6-1.3c0.3-0.4,0.8-0.8,1.3-1.1
	c0.5-0.3,1.1-0.5,1.8-0.6c0.5-0.1,1.1,0.1,1.6,0.5c0.5,0.4,1.1,0.8,1.7,1.2c0.6,0.5,1.2,0.8,1.9,1.1c0.8,0.3,1.5,0.3,2.4,0.1
	C608.7,426,608.3,424.9,607.6,424z M569.2,414.2c-0.8,0.3-1.6,0.5-2.5,0.8c-0.8,0.2-1.7,0.5-2.5,0.7c-0.8,0.2-1.7,0.2-2.5,0.2
	c0.3-0.5,0.5-0.8,0.8-1.1c0.2-0.3,0.2-0.8-0.1-1.5c-1.1-0.2-2.1,0-3,0.5c-0.9,0.5-1.8,1.1-2.6,1.9c-0.8,0.7-1.7,1.4-2.6,2.1
	c-0.8,0.6-1.8,1-3,1c0.3,0.5,1,0.8,2.1,1c1,0.2,2.3,0.3,3.8,0.3c1.4,0,2.9-0.2,4.6-0.4c1.6-0.3,3.1-0.7,4.4-1.2
	c1.4-0.5,2.6-1.2,3.6-2c1-0.8,1.6-1.8,1.9-2.9C570.7,413.7,570,414,569.2,414.2z M602.2,454.5c-0.8,0.2-1.5,0.2-2.3,0.2
	c-0.7-0.1-1.4-0.3-1.9-0.7c-0.5-0.4-0.9-1-1.1-1.8c-0.2-0.5-0.1-0.8,0.2-1.2c0.2-0.3,0.4-0.6,0.8-0.8c0.3-0.3,0.6-0.5,1.1-0.6
	c0.5-0.2,0.9-0.2,1.3-0.2c0.1-0.8-0.2-1.4-0.7-1.8c-0.5-0.5-1.3-0.8-2.2-0.9c0.4-0.5,0.5-1.1,0.4-1.7c-0.2-0.6-0.4-1.1-0.8-1.5
	c-0.4-0.5-0.8-0.8-1.4-1c-0.6-0.2-1.1-0.2-1.8,0.2c-1.8,0.9-3,2-3.7,3.2c-0.8,1.1-1.1,2.6-1,4.3c0,1.1,0.4,2.1,1,3.1
	c0.7,0.9,1.5,1.8,2.5,2.5c1,0.8,2.2,1.3,3.5,1.7c1.2,0.4,2.5,0.5,3.9,0.5c1.2-0.2,2.2-0.6,3.1-1.4c0.8-0.8,1.4-1.6,1.5-2.5
	C603.8,454.1,603,454.3,602.2,454.5z M566.2,439.2c-0.3-0.8-0.5-1.7-0.8-2.5c-0.2-0.9-0.5-1.8-0.8-2.6c-0.2-0.8-0.6-1.5-1-2.1
	c-0.5-0.8-1.2-1.4-1.9-1.8c-0.8-0.4-1.5-0.7-2.4-0.9c-0.8-0.2-1.7-0.4-2.5-0.5c-0.8-0.1-1.6-0.2-2.4-0.5c0.2,1.7,0.6,3.3,1.5,4.9
	c0.8,1.5,1.9,3,3.2,4.2c1.2,1.3,2.6,2.3,4.1,3c1.5,0.8,2.8,1.1,4.2,1.1C566.8,440.8,566.5,440,566.2,439.2z"/>
<path class="st2" d="M320.6,437.1c-1.8,1.1-3.3,2.5-4.5,4.2c-0.8,1.1-1.3,2.5-1.5,4c-0.2,1.5-0.3,2.9-0.2,4.5
	c0.2,1.5,0.5,2.9,0.8,4.3c0.5,1.4,0.9,2.6,1.5,3.7c0.2-1.9,0.5-3.9,0.8-5.9c0.4-2.1,0.9-4.1,1.6-6c0.7-2,1.7-3.8,2.8-5.6
	c1.1-1.7,2.5-3.3,4.2-4.6C324.3,435.5,322.4,435.9,320.6,437.1z M340,432.7c-1.1-0.9-2.5-1.8-4.1-2.5c-1.4-0.7-2.8-1-4.1-0.9
	c-1.3,0-2.6,0.2-3.9,0.7c-1.3,0.5-2.5,1-3.8,1.7c-1.2,0.6-2.5,1.2-3.7,1.7c0.5,0.5,1.2,0.8,2.1,0.9c0.8,0.1,1.5,0.2,2.3,0.2
	c0.7,0,1.4,0,2,0.1c0.5,0.1,0.9,0.3,1.1,0.8c0.2,0.3,0.2,0.6-0.2,0.9c-0.2,0.3-0.5,0.6-0.9,0.9c-0.4,0.3-0.8,0.6-1.1,1
	c-0.4,0.3-0.7,0.6-0.9,1c-0.6,1.3-0.9,2.6-0.8,3.9c0.1,1.3,0.3,2.5,0.8,3.7c0.5,1.2,1.3,2.4,2.2,3.5c0.8,1.1,1.8,2.1,2.9,3
	c-0.1-0.9-0.2-1.9-0.5-2.9c-0.2-1-0.5-2-0.8-3.1c-0.2-1-0.3-2-0.3-2.9c-0.1-1,0.2-1.9,0.7-2.9c0.6-1.1,1.5-1.9,2.6-2.4
	c1.1-0.5,2.3-0.8,3.6-1.1c1.2-0.2,2.5-0.5,3.9-0.6c1.3-0.2,2.6-0.4,3.8-0.8C342,435,341.1,433.7,340,432.7z M330.1,431.8
	c0,0.3-0.2,0.5-0.5,0.5c-0.3-0.1-0.5-0.2-0.4-0.5c0-0.4,0.2-0.5,0.5-0.5C330,431.3,330.2,431.5,330.1,431.8z M427.7,422.5
	c-2.7-0.1-5.3,0-7.9,0.4c-3.2,0.5-6.1,1.2-9.1,2.1c-2.9,0.9-5.8,2-8.6,3.2c-2.8,1.2-5.5,2.5-8,3.8c-3.2,1.7-6.7,3.1-10.5,4.1
	c-3.8,1.1-7.5,1.9-11.3,2.2c-3.8,0.4-7.4,0.4-10.8,0.1c-3.5-0.3-6.6-1.1-9.3-2.3c-2.3-1.1-4.3-2.3-6-3.8c-1.8-1.5-3.2-3.1-4.4-4.8
	c-1.1-1.8-1.9-3.5-2.3-5.4c-0.4-1.9-0.4-3.6,0-5.3c0.5-1.9,1-3.4,1.7-4.5c0.6-1,1.3-1.8,2.1-2.2c0.8-0.5,1.5-0.8,2.4-0.8
	c0.8,0,1.7,0.1,2.5,0.2c0.9,0.2,1.8,0.4,2.5,0.6c0.8,0.2,1.5,0.4,2.2,0.4c0.8,0.1,1.6,0,2.5-0.2c0.8-0.3,1.5-0.5,2.4-0.8
	c0.8-0.2,1.6-0.5,2.5-0.6c0.8-0.2,1.7-0.2,2.5-0.1c0-1.1-0.3-2.1-0.9-3c-0.6-0.9-1.4-1.6-2.3-2.2c-0.8-0.5-1.8-0.9-3-1.2
	c-1.1-0.2-2.2-0.4-3.2-0.4c-1.4-0.1-2.8,0.2-4.2,0.6c-1.5,0.5-2.9,1.1-4.2,1.9c-1.4,0.8-2.7,1.7-3.8,2.7c-1.2,1-2.2,2.1-3,3.2
	c-0.9-2.9-1.1-5.7-0.5-8.5c0.5-2.8,1.5-5.2,3.1-7.4c1.5-2.1,3.5-3.8,5.9-5.1c2.3-1.2,4.8-1.7,7.6-1.5c0.5,0,0.9,0.1,1.5,0.3
	c0.5,0.2,0.8,0.5,1.2,0.8c0.4,0.3,0.8,0.7,1,1.1c0.2,0.5,0.3,0.8,0.3,1.2c-0.3,1.1-1.2,1.7-2.7,1.6c-0.3,0.2-0.6,0.4-0.8,0.7
	c-0.2,0.3-0.4,0.6-0.4,1c0,0.4,0.1,0.8,0.2,1.1c0.2,0.4,0.5,0.6,0.8,0.7c2.2,0.2,4.1-0.3,5.5-1.6c1.5-1.1,2.4-2.8,2.6-4.9
	c0.1-1,0-1.9-0.3-2.8c-0.4-0.8-0.8-1.7-1.5-2.5c-0.6-0.7-1.4-1.3-2.4-1.8c-0.9-0.5-1.9-0.8-3-0.9c-3.4-0.5-6.5-0.1-9.1,1.1
	c-2.6,1.1-4.9,2.8-6.8,5.1c-1.9,2.2-3.4,4.8-4.5,7.8c-1.1,3-1.8,6.1-2.1,9.3c-0.3,3.6-0.2,7.1,0.4,10.5c0.5,3.4,1.5,6.5,2.9,9.4
	c1.5,2.9,3.4,5.5,5.7,7.8c2.4,2.2,5.1,4.1,8.3,5.5c3,1.3,6.4,2.2,10.1,2.6c3.8,0.4,7.7,0.5,11.6,0.1c4-0.4,7.8-1.1,11.7-2.2
	c3.9-1.1,7.4-2.6,10.6-4.4c4.9-2.8,10.2-5.1,15.8-7c5.2-1.7,10.5-2.7,16.1-2.9c0.6,0,1.1,0,1.7-0.1c0.1-0.2,0.1-0.5,0.1-1.1
	c0.1-0.5,0.1-0.9,0.1-1.2C428.7,422.6,428.2,422.6,427.7,422.5z M354,404.8c0-0.3,0.2-0.5,0.5-0.4c0.3,0,0.5,0.2,0.4,0.5
	c-0.1,0.3-0.2,0.5-0.5,0.4C354.1,405.4,353.9,405.1,354,404.8z M387,424.2c-0.4-0.7-0.8-1.3-1.5-1.9c-0.6-0.5-1.4-1-2.1-1.4
	c-0.8-0.4-1.7-0.6-2.6-0.7c-1.1-0.1-2.2,0-3.4,0.2c-1.2,0.2-2.3,0.7-3.4,1.2c-1,0.6-1.8,1.4-2.5,2.3c-0.7,0.9-1.1,2-1.2,3.3
	c1,0.2,1.8,0.2,2.5-0.1c0.8-0.3,1.4-0.6,2-1.1c0.6-0.5,1.2-0.8,1.7-1.2c0.5-0.4,1.1-0.5,1.6-0.5c0.6,0.1,1.2,0.3,1.8,0.6
	c0.5,0.3,1,0.7,1.3,1.1c0.4,0.5,0.5,0.8,0.6,1.3c0.1,0.5-0.2,0.8-0.5,1.1c-0.4,0.2-0.9,0.2-1.8,0.2c-0.8-0.1-1.7-0.1-2.6,0
	c-0.8,0-1.6,0.2-2.4,0.6c-0.7,0.4-1.1,1.2-1.1,2.5c0.3-0.3,0.8-0.5,1.5-0.7c0.7-0.2,1.5-0.2,2.2-0.2c0.8,0.1,1.5,0.2,2.1,0.5
	c0.7,0.2,1.1,0.5,1.3,1c0.2,0.7,0.6,1.1,1.3,1.2c0.8,0.1,1.5-0.2,2.4-0.6c0.8-0.5,1.6-1.4,2.3-2.4c0.7-1.2,1.1-2.5,1.2-4.1
	C387.5,425.8,387.3,425,387,424.2z M424.8,417.8c-0.9-0.7-1.8-1.4-2.6-2.1c-0.8-0.8-1.7-1.4-2.6-1.9c-0.9-0.5-1.8-0.8-3-0.5
	c-0.2,0.6-0.2,1.1-0.1,1.5c0.2,0.3,0.5,0.7,0.8,1.1c-0.8,0-1.6-0.1-2.5-0.2c-0.8-0.2-1.8-0.5-2.6-0.7c-0.8-0.2-1.7-0.5-2.5-0.8
	c-0.8-0.2-1.5-0.5-2.3-0.6c0.2,1.1,0.8,2.1,1.8,2.9c1,0.8,2.1,1.5,3.5,2c1.4,0.5,2.9,0.9,4.5,1.2c1.6,0.2,3.1,0.4,4.6,0.4
	c1.5,0,2.7-0.1,3.8-0.3c1.1-0.2,1.8-0.5,2.1-1C426.6,418.8,425.6,418.4,424.8,417.8z M388.9,445.6c-0.7-1.2-1.9-2.3-3.7-3.2
	c-0.6-0.3-1.2-0.4-1.8-0.2c-0.5,0.2-1.1,0.5-1.4,0.9c-0.4,0.5-0.7,1-0.8,1.6c-0.1,0.6,0,1.1,0.4,1.7c-0.9,0.2-1.7,0.5-2.2,0.9
	c-0.5,0.5-0.8,1.1-0.7,1.8c0.4,0,0.8,0.1,1.3,0.2c0.4,0.2,0.8,0.3,1.1,0.6c0.3,0.2,0.6,0.5,0.8,0.8c0.2,0.4,0.2,0.8,0.2,1.2
	c-0.2,0.8-0.5,1.5-1.1,1.8c-0.6,0.4-1.2,0.6-2,0.7c-0.7,0.1-1.5,0-2.3-0.2c-0.8-0.2-1.5-0.5-2.3-0.8c0.2,0.9,0.7,1.8,1.5,2.5
	c0.8,0.8,1.8,1.2,3.1,1.4c1.3,0.1,2.6-0.1,3.9-0.5c1.3-0.4,2.5-0.9,3.5-1.7c1-0.8,1.8-1.6,2.5-2.5c0.6-1,1-2,1-3.1
	C390,448.2,389.7,446.8,388.9,445.6z M422.1,428.7c-0.8,0.1-1.7,0.2-2.5,0.5c-0.8,0.2-1.6,0.5-2.4,0.9c-0.8,0.5-1.4,1.1-1.9,1.8
	c-0.4,0.5-0.8,1.3-1.1,2.1c-0.3,0.8-0.5,1.7-0.8,2.6c-0.2,0.8-0.5,1.7-0.8,2.5c-0.3,0.8-0.7,1.6-1.1,2.3c1.3,0.1,2.8-0.3,4.2-1.1
	c1.5-0.7,2.9-1.8,4.1-3c1.2-1.2,2.2-2.7,3.1-4.2c0.9-1.6,1.4-3.2,1.5-4.9C423.8,428.5,423,428.6,422.1,428.7z"/>
</svg>
